<svg width="800" height="800" viewBox="0 0 800 800" fill="none" xmlns="http://www.w3.org/2000/svg">
<rect width="800" height="800" fill="white"/>
<path d="M728.473 71.5274C660.157 3.21139 377.041 155.673 223.599 309.115L490.885 576.402C644.327 422.959 796.789 139.843 728.473 71.5274Z" fill="#D64050"/>
<path d="M728.473 71.5274C660.157 3.21139 377.041 155.673 223.599 309.115L278.971 364.488C439.1 204.359 648.254 64.1332 710.271 87.2136C718.573 90.3034 725.971 98.9224 729.166 114.257L728.473 71.5274Z" fill="#BC2F3F"/>
<path d="M490.885 576.402C644.327 422.959 796.789 139.843 728.473 71.5274C710.344 71.2335 701.081 70.483 697.428 70.0703C695.121 69.6368 694.637 69.7549 697.428 70.0703C703.355 71.1838 721.31 75.9375 726.67 90.3387C752.031 158.484 645.69 353.429 504.596 508.767C491.639 478.394 464.336 437.201 413.567 386.433C358.055 330.92 290.434 303.328 251.409 301.969C239.376 300.691 229.794 302.919 223.598 309.115C228.79 303.923 238.546 301.521 251.409 301.969C287.916 305.845 346.984 341.991 402.496 397.503C446.404 441.411 478.196 487.543 491.487 522.977C482.742 532.309 473.878 541.474 464.918 550.435L490.885 576.402Z" fill="white"/>
<path d="M728.473 71.5274C796.789 139.843 644.327 422.959 490.885 576.402L223.599 309.115C377.041 155.673 660.157 3.21139 728.473 71.5274ZM717.159 82.8411C706.11 71.7919 682.985 67.0504 645.235 73.9878C608.729 80.6967 563.634 97.4557 515.056 121.501C422.792 167.172 320.94 237.632 246.344 309.233L490.767 553.656C562.368 479.06 632.828 377.208 678.499 284.944C702.544 236.366 719.303 191.272 726.012 154.765C732.95 117.016 728.208 93.8903 717.159 82.8411Z" fill="#7E1322"/>
<ellipse cx="357.242" cy="442.758" rx="189" ry="67.4283" transform="rotate(45 357.242 442.758)" fill="#741420"/>
<path d="M473.207 558.724C451.356 580.575 381.723 546.369 317.677 482.323C253.631 418.277 219.425 348.644 241.276 326.793C263.127 304.942 332.76 339.148 396.806 403.194C460.852 467.24 495.058 536.873 473.207 558.724Z" fill="#F88D2B"/>
<path d="M395.969 493.486C387.541 501.914 360.684 488.721 335.982 464.018C311.28 439.316 298.087 412.459 306.514 404.031C314.942 395.603 341.8 408.796 366.502 433.499C391.204 458.201 404.397 485.058 395.969 493.486Z" fill="#F5BD4E"/>
<path d="M258.174 383.808C257.964 383.382 257.617 383.028 257.177 382.834C256.737 382.641 256.245 382.621 255.802 382.783C255.36 382.946 254.996 383.278 254.786 383.71C254.575 384.142 254.539 384.637 254.653 385.097C252.899 381.513 251.35 377.806 250.127 373.922C247.344 364.572 245.001 352.139 253.869 342.213C259.176 336.59 266.912 334.915 273.344 334.959C323.576 341.445 358.77 375.872 391.197 408.134C397.161 414.439 402.91 420.94 408.416 427.634C410.908 430.663 413.35 433.732 415.737 436.84C415.412 436.475 414.96 436.241 414.47 436.197C413.98 436.154 413.495 436.303 413.118 436.614C412.742 436.925 412.503 437.374 412.453 437.863C412.404 438.352 412.548 438.841 412.846 439.228C410.27 436.328 407.651 433.466 404.995 430.642C399.126 424.403 393.072 418.349 386.856 412.474C353.807 382.495 315.682 350.065 273.329 344.959C268.251 344.935 263.577 346.06 260.542 348.886C255.253 353.515 254.694 363.478 255.979 372.597C256.48 376.315 257.246 380.059 258.174 383.808Z" fill="#DB7010"/>
<path d="M415.858 541.491C416.249 541.732 416.581 542.08 416.762 542.51C416.943 542.94 416.96 543.412 416.805 543.835C416.65 544.258 416.332 544.607 415.916 544.819C415.5 545.03 415.022 545.081 414.568 545.013C416.401 546.128 418.292 547.159 420.244 548.089C428.015 551.7 436.978 554.36 446.808 552.013C450.659 551.033 454.606 549.052 457.626 545.971C469.327 532.354 463.722 516.499 459.652 504.512C454.868 492.033 448.108 480.803 440.595 470.233C439.375 468.525 438.147 466.859 436.875 465.18C437.112 465.599 437.197 466.095 437.093 466.571C436.989 467.046 436.707 467.461 436.305 467.725C435.904 467.989 435.412 468.084 434.934 467.992C434.456 467.899 434.034 467.625 433.742 467.241C434.766 469.05 435.751 470.833 436.731 472.647C447.606 493.795 462.486 522.974 450.605 538.95C448.964 540.563 446.827 541.68 444.3 542.332C437.91 543.952 429.956 543.321 421.96 542.34C419.948 542.087 417.913 541.8 415.858 541.491Z" fill="#DB7010"/>
<path d="M256.414 384.452C249.992 366.917 249.778 352.977 257.205 345.55C275.725 327.03 334.744 356.021 389.026 410.304C398.207 419.485 406.665 428.801 414.291 438.034" stroke="#DB7010" stroke-width="4" stroke-linecap="round" stroke-linejoin="round"/>
<path d="M415.213 543.252C432.749 549.674 446.689 549.887 454.116 542.46C466.299 530.277 457.921 500.568 435.309 466.211" stroke="#DB7010" stroke-width="4" stroke-linecap="round" stroke-linejoin="round"/>
<path d="M654.356 322.864C654.027 323.516 653.528 324.095 652.876 324.45C652.224 324.806 651.482 324.91 650.789 324.735C650.095 324.56 649.492 324.116 649.087 323.494C648.682 322.871 648.517 322.125 648.538 321.395C648.566 319.921 648.549 318.461 648.494 317.014C647.928 304.002 644.688 291.881 641.044 279.615C637.293 267.42 633.158 254.899 628.08 242.741C627.505 241.424 626.902 240.108 626.311 239.01C625.929 238.387 625.699 237.658 625.74 236.916C625.781 236.175 626.082 235.489 626.596 234.992C627.11 234.494 627.805 234.215 628.547 234.198C629.29 234.181 630.011 234.434 630.621 234.836C632.122 235.929 633.313 237.004 634.51 238.151C644.895 248.501 652.095 261.14 656.362 274.993C660.523 288.763 661.417 304.374 656.28 318.353C655.711 319.891 655.069 321.399 654.356 322.864Z" fill="#7E1322"/>
<path d="M679.105 261.258C678.982 261.745 678.732 262.208 678.346 262.543C677.96 262.878 677.477 263.058 676.985 263.042C676.492 263.026 676.021 262.816 675.658 262.457C675.294 262.098 675.074 261.62 674.983 261.125C674.786 260.087 674.577 259.069 674.357 258.051C672.356 248.926 669.521 240.459 666.347 232.065C663.111 223.759 659.721 215.152 655.109 207.572C654.603 206.781 654.026 205.991 653.548 205.456C653.173 205.121 652.879 204.685 652.761 204.187C652.643 203.69 652.708 203.178 652.951 202.749C653.193 202.321 653.598 202.001 654.084 201.845C654.571 201.689 655.097 201.716 655.577 201.865C656.922 202.383 657.941 203.038 658.928 203.71C667.459 210.046 672.954 218.762 676.628 228.155C680.217 237.57 681.511 248.026 679.787 257.975C679.597 259.08 679.37 260.169 679.105 261.258Z" fill="#7E1322"/>
<path d="M551.539 189.243C551.715 189.714 551.771 190.238 551.643 190.733C551.514 191.228 551.217 191.65 550.801 191.916C550.386 192.182 549.878 192.275 549.374 192.185C548.871 192.094 548.419 191.823 548.064 191.466C547.318 190.724 546.547 189.971 545.784 189.247C538.851 182.711 531.719 176.748 524.636 170.805C517.509 164.986 510.502 158.811 502.584 154.716C501.702 154.286 500.787 153.898 499.882 153.587C499.402 153.438 498.953 153.163 498.64 152.758C498.326 152.354 498.174 151.86 498.218 151.369C498.262 150.877 498.499 150.418 498.878 150.076C499.258 149.732 499.749 149.54 500.248 149.479C501.449 149.355 502.688 149.359 503.886 149.443C514.74 150.511 523.89 156.003 531.677 162.354C539.425 168.845 545.914 176.855 550.223 186.118C550.692 187.141 551.143 188.198 551.539 189.243Z" fill="#7E1322"/>
<path d="M663.407 133.969C663.654 134.408 663.79 134.917 663.738 135.426C663.687 135.935 663.458 136.398 663.088 136.725C662.718 137.051 662.23 137.221 661.719 137.208C661.207 137.196 660.719 136.998 660.314 136.699C659.444 136.058 658.574 135.424 657.707 134.797C649.898 129.151 642.268 124.074 634.419 119.567C626.565 115.059 618.45 111.103 609.516 107.734C608.518 107.359 607.526 106.994 606.507 106.633C606.032 106.467 605.594 106.174 605.296 105.758C604.998 105.343 604.864 104.844 604.926 104.354C604.988 103.865 605.242 103.415 605.634 103.087C606.027 102.758 606.524 102.584 607.025 102.541C608.155 102.453 609.272 102.397 610.407 102.376C620.575 102.159 630.967 104.872 639.895 110.027C648.852 115.158 656.292 122.584 661.679 131.092C662.279 132.038 662.856 132.998 663.407 133.969Z" fill="#7E1322"/>
<path d="M625.391 157.372C625.568 157.823 625.675 158.314 625.624 158.796C625.573 159.279 625.37 159.711 625.036 160.021C624.702 160.331 624.255 160.501 623.77 160.516C623.285 160.531 622.805 160.387 622.368 160.178C621.83 159.935 621.284 159.688 620.748 159.452C615.908 157.348 611.394 155.325 607.152 152.885C602.888 150.502 598.959 147.597 594.788 145.131C594.319 144.866 593.84 144.614 593.364 144.387C592.912 144.21 592.479 143.957 592.159 143.592C591.839 143.228 591.659 142.785 591.657 142.33C591.656 141.874 591.833 141.43 592.151 141.064C592.468 140.697 592.9 140.441 593.35 140.262C594.031 140.03 594.742 139.862 595.445 139.74C601.806 138.774 607.644 140.558 612.599 143.328C617.542 146.163 621.773 150.29 624.549 155.573C624.852 156.158 625.141 156.765 625.391 157.372Z" fill="#7E1322"/>
<path d="M339.118 212.443C337.072 213.014 335.382 214.37 334.443 216.274C333.503 218.174 333.39 220.468 334.108 222.587C334.826 224.706 336.309 226.458 338.211 227.396C340.114 228.337 342.279 228.387 344.252 227.597C345.616 227.047 346.962 226.531 348.343 226.032C372.905 217.234 401.786 215.776 426.69 225.613C428.007 226.179 429.366 226.835 430.59 227.514C431.249 227.884 432.048 227.974 432.799 227.785C433.551 227.595 434.194 227.141 434.598 226.504C435.002 225.867 435.139 225.092 434.99 224.331C434.841 223.571 434.419 222.886 433.804 222.448C432.462 221.497 431.002 220.595 429.601 219.801C403.507 206.17 372.744 204.342 343.914 211.178C342.302 211.572 340.724 211.987 339.118 212.443Z" fill="#7E1322"/>
<path d="M607.443 434.11C606.568 436.045 604.971 437.517 602.953 438.174C600.937 438.834 598.666 438.626 596.688 437.622C594.71 436.618 593.202 434.907 592.545 432.891C591.885 430.873 592.13 428.715 593.176 426.867C593.942 425.543 594.647 424.133 595.285 422.666C605.945 395.199 599.345 358.555 581.275 332.434C580.228 330.996 579.118 329.586 577.971 328.245C577.475 327.667 577.228 326.899 577.269 326.122C577.311 325.344 577.637 324.622 578.192 324.1C578.746 323.579 579.487 323.297 580.266 323.303C581.044 323.31 581.796 323.604 582.342 324.135C583.724 325.482 585.067 326.908 586.344 328.365C608.147 355.347 619.71 391.453 609.802 428.097C609.134 430.123 608.35 432.139 607.443 434.11Z" fill="#7E1322"/>
<path d="M564.503 489.71C563.713 491.096 562.421 492.072 560.861 492.392C559.304 492.714 557.606 492.353 556.192 491.422C554.777 490.49 553.775 489.073 553.455 487.515C553.133 485.956 553.519 484.383 554.48 483.111C554.975 482.474 555.448 481.804 555.898 481.109C563.965 468.176 564.253 449.406 559.955 433.042C559.708 432.124 559.441 431.203 559.159 430.296C558.992 429.761 559.05 429.163 559.301 428.642C559.553 428.121 559.978 427.719 560.501 427.518C561.025 427.317 561.609 427.33 562.146 427.548C562.681 427.766 563.125 428.171 563.359 428.681C563.779 429.597 564.184 430.532 564.569 431.468C571.13 448.304 574.365 467.779 566.109 486.664C565.621 487.693 565.085 488.713 564.503 489.71Z" fill="#7E1322"/>
<mask id="mask0_1_387" style="mask-type:alpha" maskUnits="userSpaceOnUse" x="47" y="474" width="280" height="279">
<path d="M313.55 521.855C346.183 579.533 313.966 667.519 249.395 714.849C262.93 671.519 260.842 645.467 248.893 625.84C182.787 691.946 126.863 729.838 47.7708 752.716C70.649 673.624 108.541 617.7 174.647 551.594C155.02 539.645 128.968 537.557 85.6377 551.092C132.968 486.521 220.953 454.304 278.631 486.936C283.671 493 289.252 499.131 295.304 505.183C301.355 511.234 307.486 516.816 313.55 521.855Z" fill="#79BB45"/>
</mask>
<g mask="url(#mask0_1_387)">
<path d="M313.55 521.855C346.183 579.533 313.966 667.519 249.395 714.849C262.93 671.519 260.842 645.467 248.893 625.84C182.787 691.946 126.863 729.838 47.7708 752.716C70.649 673.624 108.541 617.7 174.647 551.594C155.02 539.645 128.968 537.557 85.6377 551.092C132.968 486.521 220.953 454.304 278.631 486.936C283.671 493 289.252 499.131 295.304 505.183C301.355 511.234 307.486 516.816 313.55 521.855Z" fill="#47BA53"/>
<path d="M290.809 509.678C297.122 515.99 301.996 523.118 305.545 530.82C271.493 590.112 205.746 618.786 171.962 628.525C181.701 594.741 210.375 528.994 269.667 494.942C277.369 498.491 284.497 503.365 290.809 509.678Z" fill="#0DDB96"/>
</g>
<path d="M499.964 282.151C479.757 280.402 449.18 282.437 424.635 285.649C412.74 287.206 406.792 287.984 405.723 291.801C404.654 295.617 409.6 299.587 419.492 307.526C429.857 315.846 443.085 327.31 457.887 342.113C472.69 356.915 484.154 370.143 492.474 380.509C500.413 390.4 504.383 395.346 508.199 394.277C512.016 393.208 512.794 387.261 514.351 375.365C517.563 350.82 519.598 320.243 517.849 300.036C517.337 294.123 517.082 291.166 512.958 287.042C508.834 282.919 505.877 282.663 499.964 282.151Z" fill="white"/>
<path d="M375.338 129.174C376.006 128.788 376.526 128.172 376.768 127.431C377.01 126.69 376.956 125.89 376.616 125.199C376.276 124.509 375.673 123.979 374.938 123.719C374.203 123.46 373.398 123.497 372.685 123.792C368.059 125.699 363.17 127.899 358.608 130.051C316.736 150.145 278.364 176.378 241.78 204.33C205.187 232.494 170.749 262.761 137.773 295.18C134.132 298.772 130.384 302.501 126.992 305.994C126.454 306.547 126.121 307.281 126.09 308.06C126.058 308.838 126.328 309.594 126.843 310.166C127.358 310.738 128.082 311.084 128.86 311.134C129.637 311.184 130.402 310.929 131.008 310.451C134.797 307.499 138.963 304.244 142.981 301.121C179.375 272.886 215.279 244.918 251.529 217.017C287.797 189.309 323.926 161.369 362.396 136.984C366.588 134.35 371.092 131.637 375.338 129.174Z" fill="#47BA53"/>
<path d="M641.961 478.305C642.161 477.56 642.621 476.898 643.274 476.473C643.927 476.047 644.714 475.892 645.469 476.042C646.224 476.192 646.892 476.637 647.333 477.28C647.774 477.922 647.946 478.71 647.846 479.475C647.201 484.437 646.342 489.728 645.443 494.692C636.871 540.338 621.464 584.192 603.933 626.764C586.199 669.399 565.877 710.498 543.098 750.741C540.57 755.188 537.938 759.773 535.443 763.953C535.048 764.616 534.425 765.128 533.681 765.36C532.937 765.592 532.137 765.527 531.451 765.177C530.765 764.828 530.243 764.218 529.994 763.48C529.744 762.741 529.793 761.937 530.097 761.228C531.969 756.804 534.034 751.937 536.011 747.248C553.865 704.786 571.587 662.867 589.155 620.631C606.532 578.427 624.169 536.299 637.766 492.828C639.226 488.097 640.681 483.044 641.961 478.305Z" fill="#47BA53"/>
<path d="M407.15 66.1828C407.697 66.0017 408.173 65.6326 408.466 65.1287C408.76 64.625 408.847 64.0319 408.707 63.4742C408.568 62.9164 408.212 62.4341 407.716 62.1277C407.22 61.8209 406.626 61.7194 406.058 61.8172C402.745 62.3878 399.389 63.017 396.055 63.6843C366.097 69.7226 336.804 78.8271 308.439 90.0855C280.087 101.393 252.564 114.924 226.647 131.127C223.778 132.926 220.902 134.775 218.096 136.636C217.615 136.955 217.253 137.437 217.103 138C216.953 138.563 217.025 139.158 217.306 139.66C217.587 140.161 218.058 140.533 218.617 140.698C219.176 140.863 219.775 140.805 220.298 140.561C223.324 139.149 226.401 137.732 229.454 136.345C257.01 123.861 284.882 112.403 312.876 101.235C340.884 90.1206 369.019 79.2676 397.6 69.4043C400.783 68.3117 403.987 67.2312 407.15 66.1828Z" fill="#47BA53"/>
<path d="M724.416 360.308C724.483 359.735 724.748 359.193 725.184 358.805C725.619 358.416 726.183 358.211 726.758 358.236C727.333 358.261 727.878 358.513 728.277 358.938C728.677 359.363 728.896 359.925 728.912 360.502C729.016 363.91 729.001 367.552 728.924 371.08C727.993 402.948 723.29 434.227 717.459 465.254C711.533 496.225 704.016 526.991 695.177 557.194C694.174 560.634 693.15 564.083 692.162 567.257C691.992 567.809 691.631 568.292 691.132 568.595C690.633 568.897 690.041 568.995 689.48 568.865C688.919 568.735 688.43 568.388 688.115 567.897C687.8 567.406 687.688 566.813 687.778 566.243C688.273 562.979 688.834 559.425 689.396 555.896C694.269 524.87 699.778 493.808 705.672 463.004C711.474 432.138 718.11 401.51 723.021 370.574C723.541 367.148 724.024 363.614 724.416 360.308Z" fill="#47BA53"/>
</svg>
